<svg id="Ebene_1" data-name="Ebene 1" xmlns="http://www.w3.org/2000/svg" viewBox="0 0 42.52 42.52"><path d="M15.49,16.05c-1.51,0-2.61,1.36-2.61,4.42v1.58c0,3,1.1,4.42,2.61,4.42s2.61-1.39,2.61-4.42V20.47C18.1,17.41,17,16.05,15.49,16.05Zm1,6c0,1.66-.35,2.39-1,2.39s-1-.73-1-2.39V20.47c0-1.66.35-2.4,1-2.4s1,.74,1,2.4Z" fill="#fff"/><path d="M23.14,21a2.78,2.78,0,0,0,.75-2.12c0-1.85-.91-2.68-2.47-2.68H19.11V26.32h2.52c1.77,0,2.48-1.29,2.48-2.9A2.76,2.76,0,0,0,23.14,21ZM20.7,18.21h.53c.87,0,1.07.35,1.07.95s-.29.9-.93.9H20.7Zm.76,6.09H20.7V22.08h.64c.81,0,1.17.28,1.17,1.1S22.17,24.3,21.46,24.3Z" fill="#fff"/><path d="M27.66,20.26c-.84-.36-1.18-.7-1.18-1.3s.23-.89.76-.89.92.25,1.18.93l1.18-1.29a2.48,2.48,0,0,0-2.38-1.66c-1.62,0-2.34,1.25-2.34,2.92A3.16,3.16,0,0,0,26.8,22.2c1,.48,1.25.78,1.25,1.36a.79.79,0,0,1-.85.88,1.4,1.4,0,0,1-1.33-.91l-1.19,1.28a2.69,2.69,0,0,0,2.65,1.66c1.51,0,2.31-1.19,2.31-3A2.93,2.93,0,0,0,27.66,20.26Z" fill="#fff"/><polygon points="35.08 20.07 30.95 20.07 30.95 22.09 35.08 22.09 35.08 24.49 37.1 24.49 37.1 17.66 35.08 17.66 35.08 20.07" fill="#fff"/><polygon points="7.17 22.09 11.3 22.09 11.3 20.07 7.17 20.07 7.17 17.66 5.15 17.66 5.15 24.49 7.17 24.49 7.17 22.09" fill="#fff"/></svg>